<svg width="20" height="21" viewBox="0 0 20 21" fill="none" xmlns="http://www.w3.org/2000/svg">
<path d="M10.9135 14.968H10.0044V19.4816H10.9135V14.968Z" fill="black"/>
<path d="M10.9135 6.84546H10.0044V10.4545H10.9135V6.84546Z" fill="black"/>
<path d="M10.9135 1.43164H10.0044V3.23617H10.9135V1.43164Z" fill="black"/>
<path d="M4.43179 5.95905L5.45451 0.154545L4.54543 0L3.50452 5.99087C2.538 6.1308 1.65343 6.61189 1.01069 7.34716C0.367951 8.08243 0.00945469 9.02339 0 9.99994C0 11.9636 0.981812 13.6363 1.94999 14.8363L0.909085 20.7544L1.81817 20.909L2.72726 15.6999C3.06908 16.0506 3.43349 16.3786 3.81816 16.6817L4.09088 16.8817L4.36361 16.6817C4.54543 16.5635 8.18177 13.7954 8.18177 9.99994C8.17285 8.98017 7.78336 8.0005 7.08965 7.25298C6.39595 6.50546 5.44806 6.044 4.43179 5.95905V5.95905ZM4.09088 15.7363C3.27725 15.0408 0.909085 12.7772 0.909085 9.99994C0.909085 9.15607 1.24431 8.34677 1.84101 7.75007C2.43772 7.15336 3.24702 6.81814 4.09088 6.81814C4.93475 6.81814 5.74405 7.15336 6.34075 7.75007C6.93746 8.34677 7.27268 9.15607 7.27268 9.99994C7.27268 12.7772 4.90906 15.0408 4.09088 15.7363Z" fill="black"/>
<path d="M4.09107 7.72729C3.64157 7.72729 3.20217 7.86059 2.82842 8.11032C2.45468 8.36004 2.16338 8.71499 1.99136 9.13028C1.81934 9.54556 1.77434 10.0025 1.86203 10.4434C1.94972 10.8843 2.16618 11.2892 2.48402 11.6071C2.80187 11.9249 3.20683 12.1414 3.64769 12.2291C4.08855 12.3167 4.54552 12.2717 4.9608 12.0997C5.37609 11.9277 5.73104 11.6364 5.98076 11.2627C6.23049 10.8889 6.36379 10.4495 6.36379 10C6.36379 9.39725 6.12434 8.81917 5.69812 8.39296C5.27191 7.96674 4.69383 7.72729 4.09107 7.72729V7.72729ZM4.09107 11.3636C3.82137 11.3636 3.55773 11.2837 3.33348 11.1338C3.10923 10.984 2.93446 10.771 2.83125 10.5218C2.72804 10.2727 2.70103 9.99849 2.75365 9.73398C2.80626 9.46946 2.93614 9.22648 3.12684 9.03578C3.31755 8.84507 3.56053 8.7152 3.82504 8.66258C4.08956 8.60997 4.36374 8.63697 4.61291 8.74018C4.86208 8.84339 5.07505 9.01817 5.22489 9.24242C5.37473 9.46666 5.4547 9.73031 5.4547 10C5.4547 10.3617 5.31103 10.7085 5.0553 10.9642C4.79957 11.22 4.45273 11.3636 4.09107 11.3636V11.3636Z" fill="black"/>
<path d="M16.3637 0L15.4683 0.154545L19.1046 20.909L20.0001 20.7544L16.3637 0Z" fill="black"/>
</svg>
