<svg width="20" height="20" viewBox="0 0 20 20" fill="none" xmlns="http://www.w3.org/2000/svg">
<circle cx="10" cy="2" r="2" fill="#B0B0B0"/>
<circle cx="10" cy="9" r="2" fill="#B0B0B0"/>
<circle cx="10" cy="16" r="2" fill="#B0B0B0"/>
<path d="M6 2H4.5C2.567 2 1 3.567 1 5.5V5.5C1 7.433 2.567 9 4.5 9H5.54545" stroke="#B0B0B0" stroke-linecap="round"/>
<path d="M14 16L15.5 16C17.433 16 19 14.433 19 12.5V12.5C19 10.567 17.433 9 15.5 9L14.4545 9" stroke="#B0B0B0" stroke-linecap="round"/>
<path d="M6.5 16H5C2.79086 16 1 17.7909 1 20V20" stroke="#B0B0B0" stroke-linecap="round"/>
<path d="M5.3432 3.3432L6.68641 2L5.3432 0.656796" stroke="#B0B0B0" stroke-linecap="round"/>
<path d="M5.3432 17.1433L6.68641 15.8L5.3432 14.4568" stroke="#B0B0B0" stroke-linecap="round"/>
<path d="M15.3433 7.5567L14.0001 8.8999L15.3433 10.2431" stroke="#B0B0B0" stroke-linecap="round"/>
</svg>
