<svg width="23" height="25" viewBox="0 0 23 25" fill="none" xmlns="http://www.w3.org/2000/svg">
<path d="M1.40092 2.9771C2.67479 1.74581 4.35318 1.06452 6.12737 1.06452C7.89802 1.06452 9.5764 1.74226 10.8538 2.97355C10.9567 3.0729 11.0916 3.12258 11.2229 3.12258C11.3612 3.12258 11.5032 3.06935 11.6061 2.95935C11.8119 2.74645 11.8048 2.40935 11.5919 2.2071C10.1158 0.784194 8.17479 0 6.12737 0C4.07995 0 2.13898 0.784193 0.662854 2.21064C0.44995 2.41645 0.446402 2.75 0.64866 2.9629C0.850918 3.17581 1.18802 3.17935 1.40092 2.9771Z" fill="#141515"/>
<path d="M9.64781 4.9216C9.78265 4.9216 9.91749 4.87192 10.0239 4.76902C10.2333 4.56321 10.2333 4.22612 10.0275 4.01676C8.98781 2.96644 7.60394 2.3916 6.12781 2.3916C4.65168 2.3916 3.26781 2.96999 2.22813 4.01676C2.02233 4.22612 2.02233 4.56321 2.23168 4.76902C2.44104 4.97483 2.77813 4.97483 2.98394 4.76547C3.82136 3.92096 4.9391 3.45257 6.12781 3.45257C7.31652 3.45257 8.43072 3.91741 9.27168 4.76547C9.37459 4.86838 9.50942 4.9216 9.64781 4.9216Z" fill="#141515"/>
<path d="M8.45524 5.85138C7.86621 5.17364 7.01815 4.78687 6.1275 4.78687C5.23686 4.78687 4.38524 5.17364 3.79976 5.85138C3.60815 6.07493 3.62944 6.40848 3.85299 6.60364C3.95234 6.69235 4.07653 6.73493 4.20073 6.73493C4.34976 6.73493 4.49879 6.67461 4.6017 6.55041C4.98847 6.10686 5.54202 5.85138 6.1275 5.85138C6.71299 5.85138 7.26653 6.10686 7.65331 6.55041C7.84492 6.77041 8.18202 6.79525 8.40557 6.60364C8.62557 6.41203 8.64686 6.07493 8.45524 5.85138Z" fill="#141515"/>
<path d="M22 24.5V7C22 6.44772 21.5523 6 21 6H12C11.4477 6 11 6.44772 11 7V24.5" stroke="#141515" stroke-linecap="round"/>
<path d="M10.5 13H6C5.44772 13 5 13.4477 5 14V24.5" stroke="#141515" stroke-linecap="round"/>
<line x1="7.5" y1="16.5" x2="10.5" y2="16.5" stroke="#141515" stroke-linecap="round"/>
<line x1="7.5" y1="19.5" x2="10.5" y2="19.5" stroke="#141515" stroke-linecap="round"/>
<line x1="7.5" y1="22.5" x2="10.5" y2="22.5" stroke="#141515" stroke-linecap="round"/>
<line x1="14.5" y1="10.5" x2="18.5" y2="10.5" stroke="#141515" stroke-linecap="round"/>
<line x1="14.5" y1="13.5" x2="18.5" y2="13.5" stroke="#141515" stroke-linecap="round"/>
<line x1="14.5" y1="16.5" x2="18.5" y2="16.5" stroke="#141515" stroke-linecap="round"/>
<line x1="14.5" y1="19.5" x2="18.5" y2="19.5" stroke="#141515" stroke-linecap="round"/>
<line x1="14.5" y1="22.5" x2="18.5" y2="22.5" stroke="#141515" stroke-linecap="round"/>
<circle cx="6" cy="9" r="1" fill="#141515"/>
</svg>
